<?xml version="1.0" standalone="no"?>
<!DOCTYPE svg PUBLIC "-//W3C//DTD SVG 20010904//EN"
 "http://www.w3.org/TR/2001/REC-SVG-20010904/DTD/svg10.dtd">
<svg version="1.0" xmlns="http://www.w3.org/2000/svg"
 width="2328.000000pt" height="2201.000000pt" viewBox="0 0 2328.000000 2201.000000"
 preserveAspectRatio="xMidYMid meet">

<g transform="translate(0.000000,2201.000000) scale(0.100000,-0.100000)"
fill="#000000" stroke="none">
<path d="M11165 21599 c-2341 -111 -4528 -958 -6315 -2447 -476 -396 -966
-886 -1362 -1362 -1209 -1451 -2002 -3179 -2312 -5035 -280 -1679 -150 -3428
376 -5035 418 -1281 1056 -2438 1918 -3480 380 -459 887 -970 1335 -1346 875
-733 1813 -1299 2855 -1722 1809 -734 3810 -950 5757 -622 1797 303 3503 1078
4918 2235 524 428 1092 996 1520 1520 1331 1628 2148 3628 2340 5720 55 605
58 1255 9 1850 -157 1914 -829 3744 -1946 5303 -500 698 -1145 1394 -1793
1938 -1062 890 -2232 1542 -3530 1967 -855 280 -1712 444 -2655 507 -218 15
-888 20 -1115 9z m945 -629 c1402 -70 2689 -402 3925 -1010 1991 -980 3598
-2593 4571 -4585 558 -1142 874 -2315 981 -3635 22 -273 25 -1154 5 -1410 -55
-700 -153 -1293 -313 -1893 -695 -2616 -2438 -4847 -4816 -6166 -1141 -632
-2405 -1036 -3698 -1180 -418 -47 -587 -55 -1130 -55 -543 0 -714 8 -1125 55
-1426 161 -2774 617 -4000 1353 -1265 758 -2360 1802 -3177 3028 -1100 1651
-1673 3545 -1673 5533 0 2462 887 4790 2529 6640 247 278 668 690 963 943
1473 1260 3288 2067 5198 2311 211 27 570 60 770 70 238 12 763 12 990 1z"/>
<path d="M11345 20723 c-304 -28 -664 -133 -949 -277 -766 -387 -1301 -1114
-1446 -1968 -88 -518 -15 -1079 202 -1553 28 -60 51 -119 52 -130 0 -11 -236
-432 -525 -935 -290 -503 -583 -1018 -652 -1145 -69 -126 -679 -1191 -1356
-2365 l-1231 -2135 -127 -17 c-590 -81 -1134 -360 -1559 -801 -608 -629 -868
-1501 -709 -2373 167 -910 807 -1697 1658 -2038 449 -180 920 -236 1362 -160
255 43 496 124 760 254 317 156 614 371 884 638 l144 142 3817 0 3817 0 65
-68 c544 -562 1164 -896 1828 -984 137 -18 459 -15 605 6 503 71 943 260 1335
572 192 154 419 404 563 620 234 355 389 785 438 1214 17 151 14 460 -5 615
-97 766 -503 1444 -1132 1893 -383 272 -863 445 -1329 480 l-100 7 -723 1260
c-398 693 -992 1730 -1321 2305 -329 575 -853 1488 -1164 2029 l-565 985 29
58 c114 225 205 529 251 833 20 136 17 579 -4 722 -90 589 -334 1088 -738
1507 -434 450 -997 728 -1620 801 -114 14 -445 18 -555 8z m545 -1267 c292
-67 514 -189 721 -395 214 -215 347 -462 406 -758 24 -123 24 -413 0 -536 -60
-296 -193 -544 -408 -759 l-118 -118 615 -1071 c339 -589 614 -1072 612 -1074
-2 -2 -127 -32 -277 -66 -225 -51 -275 -59 -282 -48 -5 8 -266 463 -581 1012
-546 951 -574 998 -598 993 -14 -3 -59 -13 -100 -23 -59 -14 -120 -17 -285
-17 -182 0 -223 3 -305 22 -80 19 -97 20 -105 8 -5 -7 -410 -711 -900 -1564
-489 -853 -891 -1549 -893 -1548 -5 5 -162 774 -162 792 0 11 333 597 739
1304 l738 1285 -46 39 c-233 199 -407 495 -476 806 -25 114 -31 391 -12 516
99 621 559 1092 1182 1208 103 20 438 15 535 -8z m-3031 -5223 c90 -417 264
-1235 387 -1817 123 -582 225 -1060 226 -1062 2 -1 41 27 88 63 47 36 115 83
152 105 223 132 676 242 923 223 243 -19 434 -84 640 -220 254 -168 426 -385
515 -653 21 -64 420 -1916 433 -2012 2 -11 -67 -29 -306 -80 -169 -37 -310
-64 -311 -61 -2 3 -95 435 -205 959 -111 524 -211 979 -223 1010 -74 199 -256
351 -492 412 -107 27 -206 25 -362 -6 -212 -43 -342 -110 -463 -240 -120 -129
-176 -273 -173 -449 1 -89 23 -202 205 -1055 112 -525 203 -956 202 -957 -3
-5 -617 -134 -621 -131 -2 2 -132 613 -289 1358 -650 3078 -778 3684 -865
4080 -50 228 -92 421 -93 428 -2 13 454 861 463 862 3 0 79 -341 169 -757z
m6129 -5 c94 -178 168 -326 164 -329 -4 -4 -623 -137 -1375 -297 -753 -159
-1370 -292 -1373 -295 -5 -4 434 -2098 441 -2105 2 -2 363 73 802 167 625 134
800 168 809 158 22 -23 365 -629 360 -634 -3 -3 -414 -93 -913 -200 -499 -106
-908 -194 -909 -196 -1 -1 199 -958 445 -2127 l448 -2125 -360 -3 c-199 -1
-364 1 -367 5 -11 14 -1604 7603 -1597 7610 8 8 3190 690 3228 692 23 1 38
-23 197 -321z m832 -3133 c694 -1210 1268 -2206 1274 -2212 9 -10 30 -7 98 16
114 39 215 59 351 70 707 58 1348 -417 1514 -1121 25 -103 27 -131 28 -318 0
-227 -15 -322 -77 -499 -172 -488 -601 -867 -1087 -961 -337 -65 -661 -11
-963 162 -307 175 -571 485 -682 804 l-24 69 -1063 5 -1063 5 -66 272 -67 273
1116 2 1116 3 12 90 c36 257 134 469 311 672 l71 81 -1330 2328 c-731 1280
-1329 2330 -1329 2334 0 4 109 35 243 69 133 34 262 68 287 75 39 10 47 10 56
-3 6 -9 579 -1006 1274 -2216z m-7626 835 l85 -395 -820 -1457 c-451 -802
-822 -1465 -825 -1473 -4 -10 27 -50 92 -118 213 -222 325 -455 379 -789 l6
-38 2648 0 2649 0 5 -22 c3 -13 29 -129 57 -258 28 -129 53 -243 56 -252 5
-17 -129 -18 -2719 -18 l-2724 0 -23 -67 c-34 -104 -133 -289 -208 -389 -228
-305 -564 -519 -928 -590 -123 -25 -366 -24 -494 0 -713 137 -1221 784 -1187
1511 39 826 755 1460 1566 1386 68 -6 166 -21 218 -33 51 -12 95 -19 98 -16 3
2 428 740 946 1639 1114 1935 1032 1795 1036 1783 1 -5 41 -187 87 -404z"/>
</g>
</svg>
